PathFileType	4	(X/Y/Z)	Patient4_TMGait_0pt4_01_left_22.trc.trc
DataRate	CameraRate	NumFrames	NumMarkers	Units	OrigDataRate	OrigDataStartFrame	OrigNumFrames
80.000000000000	80.000000000000	4	33	mm	80.000000000000	18	       141
Frame#	Time	Sacral			L.Shoulder			Chest			R.Shoulder			Neck			R.ASIS			L.ASIS			R.Thigh.Superior			R.Thigh.Lateral			R.Thigh.Inferior			R.Patella			L.Thigh.Superior			L.Thigh.Lateral			L.Thigh.Inferior			L.Patella			L.Shank.Superior			L.Shank.Lateral			L.Shank.Inferior			R.Shank.Superior			R.Shank.Lateral			R.Shank.Inferior			R.Heel			R.Midfoot.Superior			R.Midfoot.Lateral			R.Toe			L.Heel			L.Midfoot.Lateral			L.Midfoot.Superior			L.Toe			L.Elbow			L.Wrist			R.Elbow			R.Wrist			
		X1	Y1	Z1	X2	Y2	Z2	X3	Y3	Z3	X4	Y4	Z4	X5	Y5	Z5	X6	Y6	Z6	X7	Y7	Z7	X8	Y8	Z8	X9	Y9	Z9	X10	Y10	Z10	X11	Y11	Z11	X12	Y12	Z12	X13	Y13	Z13	X14	Y14	Z14	X15	Y15	Z15	X16	Y16	Z16	X17	Y17	Z17	X18	Y18	Z18	X19	Y19	Z19	X20	Y20	Z20	X21	Y21	Z21	X22	Y22	Z22	X23	Y23	Z23	X24	Y24	Z24	X25	Y25	Z25	X26	Y26	Z26	X27	Y27	Z27	X28	Y28	Z28	X29	Y29	Z29	X30	Y30	Z30	X31	Y31	Z31	X32	Y32	Z32	X33	Y33	Z33	

18	26.622500000000	668.155892405468	1010.827820895065	518.243688334503	834.664179700259	1447.080661542137	343.615508368144	958.805357218170	1367.576326323291	483.360172750927	902.325252303646	1434.808515354941	669.555487818931	842.614646844539	1496.863999971519	512.476737806061	904.996024730457	943.806523624012	612.732597502436	866.594991729312	970.965232101075	341.198281245617	913.391330058796	734.206236701827	582.718678755179	818.764455058528	634.554267564811	647.312703445862	883.936682974877	574.162442039008	566.199728702936	872.681574508190	492.229600986462	572.069596325981	944.381737445757	785.074494127041	358.825336307432	894.343577243469	656.922802856721	279.519159192695	1001.918319306542	599.610591149368	332.253492452963	1025.420979435550	530.900513330237	328.277001516942	1005.057653189810	456.137703896161	317.557483816083	927.989942794104	334.027862460232	262.929530920135	1006.067564785765	226.217742707977	314.569297042479	843.488881395548	404.715571736400	577.282361912756	770.652919407642	300.873153949039	637.941784289270	812.807159531871	206.996634124625	571.702241488921	678.090531023436	41.894711001076	536.120351060109	850.370827857597	97.779392401268	573.591727717335	761.592689631027	36.344391635154	610.608022022309	969.706239668192	44.697451708593	599.188740527109	910.438704824428	48.783031201955	346.940903998366	983.557444021039	55.484080340385	266.462525321702	1056.400682345459	131.306866377595	289.985165616025	1188.994013350618	100.332484803835	260.439761670626	830.253668557461	1225.750661784925	79.332311771818	973.645750750813	1072.017440730674	-79.138509025150	1035.932787468802	1115.385471387202	770.458287207378	1278.950297563506	1041.758653502148	717.484064639086	
19	26.635000000000	668.099186881880	1010.175779771767	516.140308833304	833.111460065530	1446.655268849145	341.391291211379	957.423390653587	1367.499694927930	481.163721649684	900.842250115455	1434.664834854686	667.345659235380	841.002263932374	1496.492936790116	510.151581172790	904.935034395602	943.637336783695	611.004600098200	866.844714752065	970.213612837619	339.282293315127	912.427740342340	733.647060389668	581.253058711069	817.368753921175	634.363242341100	646.016360179623	882.169723673690	573.559757070322	565.011078727677	870.514969027742	491.465927122625	570.912377316295	944.972316689536	783.957884178075	357.479876116209	893.138632715696	655.169955816036	279.921953663599	1000.880889694286	597.572113135866	331.479998813564	1022.925503999873	528.041909057368	328.388154322060	1001.763149018894	453.114917660670	318.173463314283	922.813851554632	331.763199201820	264.571243264363	999.547987652984	223.195816924776	316.593973652672	840.699086826048	404.071345168910	576.381972074465	767.268014109957	300.869572429221	637.396351876901	808.570281890524	206.581883459448	571.243479248316	672.998182297607	41.821554628805	536.135250950741	845.216871586649	97.660479035557	573.456761769511	756.488425839887	36.297001167019	610.630817940851	964.614778617976	44.700066647396	599.166653350880	901.449746294619	47.600860825753	350.179678157261	974.309410580948	52.850561485400	269.372145793632	1048.454039494100	127.456346813690	292.379958901082	1180.417474665596	94.207923310532	262.380160951637	828.745275431388	1224.855413365374	77.365112555884	972.397713634935	1071.136467023782	-80.867749012299	1035.465672471918	1116.029809356135	768.658562221703	1278.931376884113	1045.435015893746	714.453809062647	
20	26.647500000000	668.310646758649	1009.360166927467	513.799868336395	831.656238674887	1446.130951374308	338.917963430618	956.043894270356	1367.435827949431	478.863558547823	899.130127851449	1434.513597659352	664.975335456429	839.317330501110	1496.057719410495	507.566347130796	905.113300100216	943.427443567074	609.267358270564	867.513843712048	969.290921059646	337.365083971279	911.879306734110	733.030842907627	579.844657152685	816.302709725713	634.105634852292	644.656183912419	880.756235746483	572.886068729735	563.788210709808	868.636950140267	490.605332409470	569.682184649339	945.467943900652	782.060153449438	356.141621462542	891.414292082256	653.028931400570	280.263858189189	999.041249749378	594.765894281566	330.946964270722	1019.598269378579	524.573182339246	328.636766413482	997.624542684574	449.643169296763	318.803846894921	916.851697945336	329.002620483444	266.284311516601	992.399929889052	219.740100581629	318.609701792530	838.180264517371	403.350603032760	575.412052812197	764.082794942644	300.844730498313	636.794296652243	804.444861514057	206.117717657911	570.740410121868	667.920468008104	41.744588901860	536.152444188102	840.081134652725	97.522228298075	573.293814208563	751.396204808384	36.242978679938	610.649767084867	959.537312854459	44.666405356148	599.147850278390	891.936399063753	46.102247027863	353.404996103063	964.469093360398	49.912867225198	272.208026953021	1039.994447887910	123.137184702098	294.751279230541	1171.283284819580	87.493055363322	264.192030394949	827.302862831083	1223.807850246167	75.200613624145	971.256090301437	1070.139352340446	-82.787058868773	1034.476424605506	1116.494266755817	766.907036995159	1278.271825595219	1048.368870129834	711.811850301906	
21	26.660000000000	668.766587132607	1008.406046390859	511.249416120846	830.334728180753	1445.520926989695	336.198113816976	954.695835317430	1367.391840930001	476.465631253345	897.216566626703	1434.372766324298	662.445952510561	837.599949866425	1495.579413483897	504.717056199895	905.527732485850	943.172171607487	607.496667190501	868.546553063707	968.238299665156	335.442878688117	911.777516388633	732.366230512155	578.445326058485	815.616911374202	633.779576507644	643.201730571562	879.731643047160	572.144063523059	562.488289667413	867.082049613343	489.652873834268	568.336465305733	945.761655011028	779.418431579755	354.800195516789	889.144025024799	650.569895047350	280.463537990804	996.374528766622	591.327422202422	330.670384409957	1015.496153660133	520.673936679974	329.003521532275	992.764937470064	445.896006371298	319.403015622616	910.349696886578	325.862912239536	267.995066482180	984.936136866164	216.031821984681	320.544590751999	835.961266370308	402.562846766889	574.340289934499	761.127848546192	300.813596906519	636.115754614035	800.448381147188	205.614645368188	570.179461819700	662.864666784989	41.679407656634	536.173869259185	834.975724262913	97.367022291040	573.101089257595	746.323675390507	36.189177463590	610.660434736202	954.481396278615	44.576519781705	599.133585817661	882.339721201410	44.407205945031	356.510425455115	954.485786100402	46.859418388586	274.873785544864	1031.410785302210	118.574862813515	297.034372213475	1162.004810306255	80.507622241235	265.833631794005	825.922434113788	1222.590166547901	72.866159393181	970.207086406695	1068.986034128938	-84.859693683234	1032.944809710610	1116.756772590826	765.187982471594	1276.974139159543	1050.528869958892	709.555023052276	
